<?xml version="1.0" encoding="UTF-8" standalone="no"?>
<!-- Created with Inkscape (http://www.inkscape.org/) -->

<svg
   xmlns:dc="http://purl.org/dc/elements/1.1/"
   xmlns:cc="http://creativecommons.org/ns#"
   xmlns:rdf="http://www.w3.org/1999/02/22-rdf-syntax-ns#"
   xmlns:svg="http://www.w3.org/2000/svg"
   xmlns="http://www.w3.org/2000/svg"
   xmlns:xlink="http://www.w3.org/1999/xlink"
   xmlns:sodipodi="http://sodipodi.sourceforge.net/DTD/sodipodi-0.dtd"
   xmlns:inkscape="http://www.inkscape.org/namespaces/inkscape"
   width="32"
   height="32"
   viewBox="0 0 8.4666665 8.4666669"
   version="1.1"
   id="svg8"
   inkscape:version="0.92.3 (2405546, 2018-03-11)"
   sodipodi:docname="train-sign-active.svg">
  <defs
     id="defs2" />
  <sodipodi:namedview
     id="base"
     pagecolor="#ffffff"
     bordercolor="#666666"
     borderopacity="1.0"
     inkscape:pageopacity="0.0"
     inkscape:pageshadow="2"
     inkscape:zoom="2.953125"
     inkscape:cx="16"
     inkscape:cy="16"
     inkscape:document-units="mm"
     inkscape:current-layer="layer1"
     showgrid="false"
     units="px"
     inkscape:window-width="1022"
     inkscape:window-height="558"
     inkscape:window-x="0"
     inkscape:window-y="20"
     inkscape:window-maximized="1" />
  <metadata
     id="metadata5">
    <rdf:RDF>
      <cc:Work
         rdf:about="">
        <dc:format>image/svg+xml</dc:format>
        <dc:type
           rdf:resource="http://purl.org/dc/dcmitype/StillImage" />
        <dc:title />
      </cc:Work>
    </rdf:RDF>
  </metadata>
  <g
     inkscape:label="Layer 1"
     inkscape:groupmode="layer"
     id="layer1"
     transform="translate(0,-288.53332)">
    <rect
       style="opacity:1;fill:#752b00;fill-opacity:1;fill-rule:nonzero;stroke:none;stroke-width:0.50006247;stroke-miterlimit:4;stroke-dasharray:none;stroke-opacity:1"
       id="rect10"
       width="0.9631393"
       height="3.8973544"
       x="3.8749559"
       y="292.83386" />
    <rect
       style="opacity:1;fill:#a76600;fill-opacity:1;fill-rule:nonzero;stroke:none;stroke-width:0.47387683;stroke-miterlimit:4;stroke-dasharray:none;stroke-opacity:1"
       id="rect834"
       width="0.37518203"
       height="3.1413879"
       x="4.0373459"
       y="293.58981" />
    <rect
       style="opacity:1;fill:#000000;fill-opacity:1;fill-rule:nonzero;stroke:#752b00;stroke-width:0.50682944;stroke-miterlimit:4;stroke-dasharray:none;stroke-opacity:1"
       id="rect12"
       width="7.8081756"
       height="3.6024044"
       x="0.38013777"
       y="289.76712" />
    <path
       style="fill:#008000;fill-rule:evenodd;stroke:#008000;stroke-width:0.26458332px;stroke-linecap:butt;stroke-linejoin:miter;stroke-opacity:1"
       d="m 3.8749559,296.73123 c -0.00747,-10e-6 -0.022408,0.007 -0.0224,-3e-5 9.8e-6,-0.007 0.027063,0.006 0.0224,3e-5 -0.037331,-0.0373 -0.074662,-0.0747 -0.1119928,-0.11202 -0.00747,-0.0149 -0.012383,-0.0314 -0.0224,-0.0448 -0.012671,-0.0169 -0.033932,-0.0267 -0.044797,-0.0448 -0.024294,-0.0405 -0.020503,-0.0939 -0.044797,-0.13439 -0.010864,-0.0181 -0.033932,-0.0267 -0.044797,-0.0448 -0.012147,-0.0203 -0.013631,-0.0453 -0.0224,-0.0672 -0.0062,-0.0155 -0.014933,-0.0299 -0.0224,-0.0448 -0.00747,-0.0149 -0.013136,-0.0309 -0.0224,-0.0448 -0.00586,-0.009 -0.016542,-0.0136 -0.0224,-0.0224 -0.034317,-0.0515 -0.00188,-0.0448 -0.044797,-0.0448"
       id="path828"
       inkscape:connector-curvature="0" />
    <path
       style="fill:none;fill-rule:evenodd;stroke:#008000;stroke-width:0.26458332px;stroke-linecap:butt;stroke-linejoin:miter;stroke-opacity:1"
       d="m 3.8749559,296.73123 c 0.037331,-0.007 0.085075,0.005 0.1119928,-0.0224 0.021114,-0.0211 0,-0.0597 0,-0.0896 0,-0.0597 0,-0.11946 0,-0.17919 0,-0.0101 -0.00341,-0.0604 0,-0.0672 0.034153,-0.0683 0.017756,0.041 0.044797,-0.0672 0.00362,-0.0145 0,-0.0299 0,-0.0448 0,-0.0149 0,-0.0299 0,-0.0448 0,-0.007 -0.00235,-0.0153 0,-0.0224 0.00528,-0.0158 0.017119,-0.029 0.0224,-0.0448 0.00235,-0.007 -0.00334,-0.0157 0,-0.0224 0.00944,-0.0189 0.035353,-0.0259 0.044797,-0.0448 0.00334,-0.007 -0.00334,-0.0157 0,-0.0224 0.027677,-0.0553 0.022398,0.008 0.022398,-0.0448"
       id="path836"
       inkscape:connector-curvature="0" />
    <path
       style="fill:none;fill-rule:evenodd;stroke:#008000;stroke-width:0.26458332px;stroke-linecap:butt;stroke-linejoin:miter;stroke-opacity:1"
       d="m 4.3229277,296.7312 c 0,-0.11945 0,-0.23891 0,-0.35837 0,-0.0224 0,-0.0448 0,-0.0672 0,-0.007 0,-0.0149 0,-0.0224 0,-0.007 -0.00528,-0.0171 0,-0.0224 0.00528,-0.005 0.019061,0.007 0.0224,0 0.010017,-0.02 -0.010017,-0.0472 0,-0.0672 0.00472,-0.009 0.017677,-0.013 0.0224,-0.0224 0.00334,-0.007 -0.00235,-0.0153 0,-0.0224 0.00528,-0.0158 0.017118,-0.029 0.0224,-0.0448 0.00472,-0.0142 -0.01056,-0.0342 0,-0.0448 0.00528,-0.005 0.018256,0.006 0.0224,0 0.068295,-0.0159 0.00863,-0.0621 0.0224,-0.0896 0.00472,-0.009 0.032851,-0.0239 0.0224,-0.0224 -0.1130626,0.0162 -0.2239857,0.0448 -0.3359785,0.0672"
       id="path838"
       inkscape:connector-curvature="0" />
    <path
       style="fill:none;fill-rule:evenodd;stroke:#008000;stroke-width:0.26458332px;stroke-linecap:butt;stroke-linejoin:miter;stroke-opacity:1"
       d="m 4.838095,296.73123 c -0.074662,-0.0299 -0.169895,-0.0301 -0.2239856,-0.0896 -0.035154,-0.0387 0,-0.10453 0,-0.15679 0,-0.0821 0,-0.16426 0,-0.24638 0,-0.0373 -0.00463,-0.075 0,-0.112 0.00293,-0.0234 0.016671,-0.0443 0.0224,-0.0672 0.00516,-0.0206 -0.00671,-0.0471 0,-0.0672 0.012716,-0.0381 0.032083,-0.0738 0.044797,-0.11199 0.00973,-0.0292 0.016362,-0.0594 0.0224,-0.0896 0.00146,-0.007 -0.00334,-0.0157 0,-0.0224 0.00472,-0.009 0.017677,-0.0129 0.0224,-0.0224 0.00334,-0.007 -0.0018,-0.0152 0,-0.0224 0.042419,-0.16968 0.044797,-0.11388 0.044797,-0.22399"
       id="path840"
       inkscape:connector-curvature="0" />
    <path
       style="fill:none;fill-rule:evenodd;stroke:#008000;stroke-width:0.26458332px;stroke-linecap:butt;stroke-linejoin:miter;stroke-opacity:1"
       d="m 4.838095,296.73123 c -0.059729,0.0149 -0.1311203,0.0832 -0.1791885,0.0448 -0.039105,-0.0313 0.047932,-0.0882 0.067196,-0.13439 0.018161,-0.0436 0.026636,-0.0908 0.044797,-0.13439 0.038527,-0.0925 0.093709,-0.17725 0.1343917,-0.26878 0.00959,-0.0216 0.016671,-0.0443 0.0224,-0.0672 0.0018,-0.007 -0.00334,-0.0157 0,-0.0224 0.00472,-0.009 0.017677,-0.0129 0.0224,-0.0224 0.00334,-0.007 -0.00334,-0.0157 0,-0.0224 0.012039,-0.0241 0.030947,-0.0441 0.044797,-0.0672 0.017179,-0.0286 0.024762,-0.0629 0.044797,-0.0896 0.012671,-0.0169 0.031605,-0.0283 0.044797,-0.0448 0.016817,-0.021 0.02798,-0.0462 0.044797,-0.0672 0.013192,-0.0165 0.029865,-0.0299 0.044797,-0.0448 0.014933,-0.0149 0.027226,-0.0331 0.044797,-0.0448 0.00621,-0.004 0.017118,0.005 0.0224,0 0.00528,-0.005 -0.00747,-0.0224 0,-0.0224 0.00747,0 0,0.0149 0,0.0224 0,0.007 0,0.0149 0,0.0224 0,0.0146 0.00441,0.072 0,0.0896 -0.031196,0.12478 -0.00381,0.0169 -0.067196,0.11199 -0.00414,0.006 0.00528,0.0171 0,0.0224 -0.00528,0.005 -0.015721,-0.003 -0.0224,0 -0.027678,0.0138 -0.0224,0.0216 -0.0224,0.0448"
       id="path842"
       inkscape:connector-curvature="0" />
    <text
       xml:space="preserve"
       style="font-style:normal;font-weight:normal;font-size:10.58333302px;line-height:0%;font-family:sans-serif;letter-spacing:0px;word-spacing:0px;fill:#fffe00;fill-opacity:1;stroke:none;stroke-width:0.26458332px;stroke-linecap:butt;stroke-linejoin:miter;stroke-opacity:1"
       x="0.73053485"
       y="289.95755"
       id="text4549"><tspan
         sodipodi:role="line"
         id="tspan4547"
         x="0.73053485"
         y="292.70673"
         style="font-size:1.41111112px;line-height:0%;fill:#fffe00;fill-opacity:1;stroke-width:0.26458332px" /><tspan
         sodipodi:role="line"
         x="0.73053485"
         y="292.70673"
         style="font-style:normal;font-variant:normal;font-weight:bold;font-stretch:normal;font-size:1.41111112px;line-height:0%;font-family:sans-serif;-inkscape-font-specification:'sans-serif Bold';fill:#fffe00;fill-opacity:1;stroke-width:0.26458332px"
         id="tspan4551">COMING!</tspan></text>
    <text
       xml:space="preserve"
       style="font-style:normal;font-weight:normal;font-size:1.41111112px;line-height:0.99999998%;font-family:sans-serif;letter-spacing:0px;word-spacing:0px;fill:#000000;fill-opacity:1;stroke:none;stroke-width:0.26458332px;stroke-linecap:butt;stroke-linejoin:miter;stroke-opacity:1"
       x="1.9995685"
       y="291.40033"
       id="text4555"><tspan
         sodipodi:role="line"
         id="tspan4553"
         x="1.9995685"
         y="291.40033"
         style="font-style:normal;font-variant:normal;font-weight:bold;font-stretch:normal;font-size:1.41111112px;line-height:0.99999998%;font-family:sans-serif;-inkscape-font-specification:'sans-serif Bold';fill:#ffff00;fill-opacity:1;stroke-width:0.26458332px">TRAIN</tspan></text>
    <rect
       style="opacity:1;fill:#000000;fill-opacity:0.54726371;fill-rule:nonzero;stroke:none;stroke-width:0.68427545;stroke-miterlimit:4;stroke-dasharray:none;stroke-opacity:1"
       id="rect832"
       width="0.95194006"
       height="0.42557317"
       x="3.8749559"
       y="293.6178" />
    <path
       style="fill:none;fill-rule:evenodd;stroke:#000000;stroke-width:0.1;stroke-linecap:butt;stroke-linejoin:miter;stroke-miterlimit:4;stroke-dasharray:none;stroke-opacity:1"
       d="m 1.199,290.12899 v 2.901"
       id="path837"
       inkscape:connector-curvature="0"
       sodipodi:nodetypes="cc" />
    <use
       x="0"
       y="0"
       xlink:href="#path837"
       id="use839"
       width="100%"
       height="100%"
       transform="translate(1.258)" />
    <use
       x="0"
       y="0"
       xlink:href="#use839"
       id="use841"
       transform="translate(1.2)"
       width="100%"
       height="100%" />
    <use
       height="100%"
       width="100%"
       transform="translate(1.831,-3.3333333e-6)"
       id="use845"
       xlink:href="#use841"
       y="0"
       x="0" />
    <use
       x="0"
       y="0"
       xlink:href="#use845"
       id="use847"
       transform="translate(0.8)"
       width="100%"
       height="100%" />
    <use
       x="0"
       y="0"
       xlink:href="#use847"
       id="use849"
       transform="translate(0.6)"
       width="100%"
       height="100%" />
  </g>
</svg>
